<?xml version="1.0" encoding="utf-8" standalone="no"?>
<!DOCTYPE svg PUBLIC "-//W3C//DTD SVG 1.1//EN"
  "http://www.w3.org/Graphics/SVG/1.1/DTD/svg11.dtd">
<svg xmlns:xlink="http://www.w3.org/1999/xlink" width="420.280938pt" height="277.37875pt" viewBox="0 0 420.280938 277.37875" xmlns="http://www.w3.org/2000/svg" version="1.1">
 <metadata>
  <rdf:RDF xmlns:dc="http://purl.org/dc/elements/1.1/" xmlns:cc="http://creativecommons.org/ns#" xmlns:rdf="http://www.w3.org/1999/02/22-rdf-syntax-ns#">
   <cc:Work>
    <dc:type rdf:resource="http://purl.org/dc/dcmitype/StillImage"/>
    <dc:date>2026-03-12T11:44:14.325974</dc:date>
    <dc:format>image/svg+xml</dc:format>
    <dc:creator>
     <cc:Agent>
      <dc:title>Matplotlib v3.10.0, https://matplotlib.org/</dc:title>
     </cc:Agent>
    </dc:creator>
   </cc:Work>
  </rdf:RDF>
 </metadata>
 <defs>
  <style type="text/css">*{stroke-linejoin: round; stroke-linecap: butt}</style>
 </defs>
 <g id="figure_1">
  <g id="patch_1">
   <path d="M 0 277.37875 
L 420.280938 277.37875 
L 420.280938 0 
L 0 0 
z
" style="fill: #ffffff"/>
  </g>
  <g id="axes_1">
   <g id="patch_2">
    <path d="M 44.115938 236.919062 
L 405.445938 236.919062 
L 405.445938 11.759062 
L 44.115938 11.759062 
z
" style="fill: #ffffff"/>
   </g>
   <g id="matplotlib.axis_1">
    <g id="xtick_1">
     <g id="line2d_1">
      <path d="M 44.115937 236.919062 
L 44.115937 11.759062 
" clip-path="url(#p224f9189de)" style="fill: none; stroke-dasharray: 2.96,1.28; stroke-dashoffset: 0; stroke: #b0b0b0; stroke-opacity: 0.4; stroke-width: 0.8"/>
     </g>
     <g id="line2d_2">
      <defs>
       <path id="m2cb45d61bc" d="M 0 0 
L 0 3.5 
" style="stroke: #000000; stroke-width: 0.8"/>
      </defs>
      <g>
       <use xlink:href="#m2cb45d61bc" x="44.115937" y="236.919062" style="stroke: #000000; stroke-width: 0.8"/>
      </g>
     </g>
     <g id="text_1">
      <text style="font-size: 12px; font-family: 'DejaVu Sans'; text-anchor: middle" x="44.115937" y="253.037187" transform="rotate(-0 44.115937 253.037187)">55</text>
     </g>
    </g>
    <g id="xtick_2">
     <g id="line2d_3">
      <path d="M 95.734509 236.919062 
L 95.734509 11.759062 
" clip-path="url(#p224f9189de)" style="fill: none; stroke-dasharray: 2.96,1.28; stroke-dashoffset: 0; stroke: #b0b0b0; stroke-opacity: 0.4; stroke-width: 0.8"/>
     </g>
     <g id="line2d_4">
      <g>
       <use xlink:href="#m2cb45d61bc" x="95.734509" y="236.919062" style="stroke: #000000; stroke-width: 0.8"/>
      </g>
     </g>
     <g id="text_2">
      <text style="font-size: 12px; font-family: 'DejaVu Sans'; text-anchor: middle" x="95.734509" y="253.037187" transform="rotate(-0 95.734509 253.037187)">60</text>
     </g>
    </g>
    <g id="xtick_3">
     <g id="line2d_5">
      <path d="M 147.35308 236.919062 
L 147.35308 11.759062 
" clip-path="url(#p224f9189de)" style="fill: none; stroke-dasharray: 2.96,1.28; stroke-dashoffset: 0; stroke: #b0b0b0; stroke-opacity: 0.4; stroke-width: 0.8"/>
     </g>
     <g id="line2d_6">
      <g>
       <use xlink:href="#m2cb45d61bc" x="147.35308" y="236.919062" style="stroke: #000000; stroke-width: 0.8"/>
      </g>
     </g>
     <g id="text_3">
      <text style="font-size: 12px; font-family: 'DejaVu Sans'; text-anchor: middle" x="147.35308" y="253.037187" transform="rotate(-0 147.35308 253.037187)">65</text>
     </g>
    </g>
    <g id="xtick_4">
     <g id="line2d_7">
      <path d="M 198.971652 236.919062 
L 198.971652 11.759062 
" clip-path="url(#p224f9189de)" style="fill: none; stroke-dasharray: 2.96,1.28; stroke-dashoffset: 0; stroke: #b0b0b0; stroke-opacity: 0.4; stroke-width: 0.8"/>
     </g>
     <g id="line2d_8">
      <g>
       <use xlink:href="#m2cb45d61bc" x="198.971652" y="236.919062" style="stroke: #000000; stroke-width: 0.8"/>
      </g>
     </g>
     <g id="text_4">
      <text style="font-size: 12px; font-family: 'DejaVu Sans'; text-anchor: middle" x="198.971652" y="253.037187" transform="rotate(-0 198.971652 253.037187)">70</text>
     </g>
    </g>
    <g id="xtick_5">
     <g id="line2d_9">
      <path d="M 250.590223 236.919062 
L 250.590223 11.759062 
" clip-path="url(#p224f9189de)" style="fill: none; stroke-dasharray: 2.96,1.28; stroke-dashoffset: 0; stroke: #b0b0b0; stroke-opacity: 0.4; stroke-width: 0.8"/>
     </g>
     <g id="line2d_10">
      <g>
       <use xlink:href="#m2cb45d61bc" x="250.590223" y="236.919062" style="stroke: #000000; stroke-width: 0.8"/>
      </g>
     </g>
     <g id="text_5">
      <text style="font-size: 12px; font-family: 'DejaVu Sans'; text-anchor: middle" x="250.590223" y="253.037187" transform="rotate(-0 250.590223 253.037187)">75</text>
     </g>
    </g>
    <g id="xtick_6">
     <g id="line2d_11">
      <path d="M 302.208795 236.919062 
L 302.208795 11.759062 
" clip-path="url(#p224f9189de)" style="fill: none; stroke-dasharray: 2.96,1.28; stroke-dashoffset: 0; stroke: #b0b0b0; stroke-opacity: 0.4; stroke-width: 0.8"/>
     </g>
     <g id="line2d_12">
      <g>
       <use xlink:href="#m2cb45d61bc" x="302.208795" y="236.919062" style="stroke: #000000; stroke-width: 0.8"/>
      </g>
     </g>
     <g id="text_6">
      <text style="font-size: 12px; font-family: 'DejaVu Sans'; text-anchor: middle" x="302.208795" y="253.037187" transform="rotate(-0 302.208795 253.037187)">80</text>
     </g>
    </g>
    <g id="xtick_7">
     <g id="line2d_13">
      <path d="M 353.827366 236.919062 
L 353.827366 11.759062 
" clip-path="url(#p224f9189de)" style="fill: none; stroke-dasharray: 2.96,1.28; stroke-dashoffset: 0; stroke: #b0b0b0; stroke-opacity: 0.4; stroke-width: 0.8"/>
     </g>
     <g id="line2d_14">
      <g>
       <use xlink:href="#m2cb45d61bc" x="353.827366" y="236.919062" style="stroke: #000000; stroke-width: 0.8"/>
      </g>
     </g>
     <g id="text_7">
      <text style="font-size: 12px; font-family: 'DejaVu Sans'; text-anchor: middle" x="353.827366" y="253.037187" transform="rotate(-0 353.827366 253.037187)">85</text>
     </g>
    </g>
    <g id="xtick_8">
     <g id="line2d_15">
      <path d="M 405.445938 236.919062 
L 405.445938 11.759062 
" clip-path="url(#p224f9189de)" style="fill: none; stroke-dasharray: 2.96,1.28; stroke-dashoffset: 0; stroke: #b0b0b0; stroke-opacity: 0.4; stroke-width: 0.8"/>
     </g>
     <g id="line2d_16">
      <g>
       <use xlink:href="#m2cb45d61bc" x="405.445938" y="236.919062" style="stroke: #000000; stroke-width: 0.8"/>
      </g>
     </g>
     <g id="text_8">
      <text style="font-size: 12px; font-family: 'DejaVu Sans'; text-anchor: middle" x="405.445938" y="253.037187" transform="rotate(-0 405.445938 253.037187)">90</text>
     </g>
    </g>
    <g id="text_9">
     <text style="font-size: 11px; font-family: 'DejaVu Sans'; text-anchor: middle" x="224.780938" y="267.891094" transform="rotate(-0 224.780938 267.891094)">Cell type matches (%)</text>
    </g>
   </g>
   <g id="matplotlib.axis_2">
    <g id="ytick_1">
     <g id="line2d_17">
      <path d="M 44.115938 219.143273 
L 405.445938 219.143273 
" clip-path="url(#p224f9189de)" style="fill: none; stroke-dasharray: 2.96,1.28; stroke-dashoffset: 0; stroke: #b0b0b0; stroke-opacity: 0.4; stroke-width: 0.8"/>
     </g>
     <g id="line2d_18">
      <defs>
       <path id="m48cae8b23f" d="M 0 0 
L -3.5 0 
" style="stroke: #000000; stroke-width: 0.8"/>
      </defs>
      <g>
       <use xlink:href="#m48cae8b23f" x="44.115938" y="219.143273" style="stroke: #000000; stroke-width: 0.8"/>
      </g>
     </g>
     <g id="text_10">
      <text style="font-size: 12px; font-family: 'DejaVu Sans'; text-anchor: end" x="37.115938" y="223.702336" transform="rotate(-0 37.115938 223.702336)">0</text>
     </g>
    </g>
    <g id="ytick_2">
     <g id="line2d_19">
      <path d="M 44.115938 189.516957 
L 405.445938 189.516957 
" clip-path="url(#p224f9189de)" style="fill: none; stroke-dasharray: 2.96,1.28; stroke-dashoffset: 0; stroke: #b0b0b0; stroke-opacity: 0.4; stroke-width: 0.8"/>
     </g>
     <g id="line2d_20">
      <g>
       <use xlink:href="#m48cae8b23f" x="44.115938" y="189.516957" style="stroke: #000000; stroke-width: 0.8"/>
      </g>
     </g>
     <g id="text_11">
      <text style="font-size: 12px; font-family: 'DejaVu Sans'; text-anchor: end" x="37.115938" y="194.07602" transform="rotate(-0 37.115938 194.07602)">5</text>
     </g>
    </g>
    <g id="ytick_3">
     <g id="line2d_21">
      <path d="M 44.115938 159.890641 
L 405.445938 159.890641 
" clip-path="url(#p224f9189de)" style="fill: none; stroke-dasharray: 2.96,1.28; stroke-dashoffset: 0; stroke: #b0b0b0; stroke-opacity: 0.4; stroke-width: 0.8"/>
     </g>
     <g id="line2d_22">
      <g>
       <use xlink:href="#m48cae8b23f" x="44.115938" y="159.890641" style="stroke: #000000; stroke-width: 0.8"/>
      </g>
     </g>
     <g id="text_12">
      <text style="font-size: 12px; font-family: 'DejaVu Sans'; text-anchor: end" x="37.115938" y="164.449704" transform="rotate(-0 37.115938 164.449704)">10</text>
     </g>
    </g>
    <g id="ytick_4">
     <g id="line2d_23">
      <path d="M 44.115938 130.264326 
L 405.445938 130.264326 
" clip-path="url(#p224f9189de)" style="fill: none; stroke-dasharray: 2.96,1.28; stroke-dashoffset: 0; stroke: #b0b0b0; stroke-opacity: 0.4; stroke-width: 0.8"/>
     </g>
     <g id="line2d_24">
      <g>
       <use xlink:href="#m48cae8b23f" x="44.115938" y="130.264326" style="stroke: #000000; stroke-width: 0.8"/>
      </g>
     </g>
     <g id="text_13">
      <text style="font-size: 12px; font-family: 'DejaVu Sans'; text-anchor: end" x="37.115938" y="134.823388" transform="rotate(-0 37.115938 134.823388)">15</text>
     </g>
    </g>
    <g id="ytick_5">
     <g id="line2d_25">
      <path d="M 44.115938 100.63801 
L 405.445938 100.63801 
" clip-path="url(#p224f9189de)" style="fill: none; stroke-dasharray: 2.96,1.28; stroke-dashoffset: 0; stroke: #b0b0b0; stroke-opacity: 0.4; stroke-width: 0.8"/>
     </g>
     <g id="line2d_26">
      <g>
       <use xlink:href="#m48cae8b23f" x="44.115938" y="100.63801" style="stroke: #000000; stroke-width: 0.8"/>
      </g>
     </g>
     <g id="text_14">
      <text style="font-size: 12px; font-family: 'DejaVu Sans'; text-anchor: end" x="37.115938" y="105.197072" transform="rotate(-0 37.115938 105.197072)">20</text>
     </g>
    </g>
    <g id="ytick_6">
     <g id="line2d_27">
      <path d="M 44.115938 71.011694 
L 405.445938 71.011694 
" clip-path="url(#p224f9189de)" style="fill: none; stroke-dasharray: 2.96,1.28; stroke-dashoffset: 0; stroke: #b0b0b0; stroke-opacity: 0.4; stroke-width: 0.8"/>
     </g>
     <g id="line2d_28">
      <g>
       <use xlink:href="#m48cae8b23f" x="44.115938" y="71.011694" style="stroke: #000000; stroke-width: 0.8"/>
      </g>
     </g>
     <g id="text_15">
      <text style="font-size: 12px; font-family: 'DejaVu Sans'; text-anchor: end" x="37.115938" y="75.570757" transform="rotate(-0 37.115938 75.570757)">25</text>
     </g>
    </g>
    <g id="ytick_7">
     <g id="line2d_29">
      <path d="M 44.115938 41.385378 
L 405.445938 41.385378 
" clip-path="url(#p224f9189de)" style="fill: none; stroke-dasharray: 2.96,1.28; stroke-dashoffset: 0; stroke: #b0b0b0; stroke-opacity: 0.4; stroke-width: 0.8"/>
     </g>
     <g id="line2d_30">
      <g>
       <use xlink:href="#m48cae8b23f" x="44.115938" y="41.385378" style="stroke: #000000; stroke-width: 0.8"/>
      </g>
     </g>
     <g id="text_16">
      <text style="font-size: 12px; font-family: 'DejaVu Sans'; text-anchor: end" x="37.115938" y="45.944441" transform="rotate(-0 37.115938 45.944441)">30</text>
     </g>
    </g>
    <g id="ytick_8">
     <g id="line2d_31">
      <path d="M 44.115938 11.759062 
L 405.445938 11.759062 
" clip-path="url(#p224f9189de)" style="fill: none; stroke-dasharray: 2.96,1.28; stroke-dashoffset: 0; stroke: #b0b0b0; stroke-opacity: 0.4; stroke-width: 0.8"/>
     </g>
     <g id="line2d_32">
      <g>
       <use xlink:href="#m48cae8b23f" x="44.115938" y="11.759062" style="stroke: #000000; stroke-width: 0.8"/>
      </g>
     </g>
     <g id="text_17">
      <text style="font-size: 12px; font-family: 'DejaVu Sans'; text-anchor: end" x="37.115938" y="16.318125" transform="rotate(-0 37.115938 16.318125)">35</text>
     </g>
    </g>
    <g id="text_18">
     <text style="font-size: 11px; font-family: 'DejaVu Sans'; text-anchor: middle" x="15.558281" y="124.339062" transform="rotate(-90 15.558281 124.339062)">Triangle violations (%)</text>
    </g>
   </g>
   <g id="patch_3">
    <path d="M 44.115938 236.919062 
L 44.115938 11.759062 
" style="fill: none; stroke: #000000; stroke-width: 0.8; stroke-linejoin: miter; stroke-linecap: square"/>
   </g>
   <g id="patch_4">
    <path d="M 44.115937 236.919062 
L 405.445938 236.919062 
" style="fill: none; stroke: #000000; stroke-width: 0.8; stroke-linejoin: miter; stroke-linecap: square"/>
   </g>
   <g id="line2d_33">
    <path d="M 230.1844 147.207804 
L 229.116506 158.206202 
L 219.645208 180.302083 
L 215.492207 189.616042 
L 205.370918 204.577827 
L 198.514561 207.550367 
" clip-path="url(#p224f9189de)" style="fill: none; stroke: #3182bd; stroke-opacity: 0.5; stroke-width: 2; stroke-linecap: square"/>
   </g>
   <g id="line2d_34">
    <path d="M 301.102566 97.142279 
L 301.427928 109.20255 
L 296.547508 157.618417 
L 275.724384 199.567182 
L 256.202706 201.664621 
L 260.432403 201.489834 
" clip-path="url(#p224f9189de)" style="fill: none; stroke: #e31a1c; stroke-opacity: 0.5; stroke-width: 2; stroke-linecap: square"/>
   </g>
   <g id="line2d_35">
    <path d="M 355.473554 67.97168 
L 339.826623 94.502709 
L 332.329136 168.844864 
L 328.091425 196.204987 
L 316.03025 197.034082 
L 312.444495 198.692271 
" clip-path="url(#p224f9189de)" style="fill: none; stroke: #756bb1; stroke-opacity: 0.5; stroke-width: 2; stroke-linecap: square"/>
   </g>
   <g id="text_19">
    <text style="font-weight: 700; font-size: 10px; font-family: 'DejaVu Sans'; text-anchor: start; fill: #3182bd" x="209.536971" y="149.967179" transform="rotate(-0 209.536971 149.967179)">MS1</text>
   </g>
   <g id="text_20">
    <text style="font-weight: 700; font-size: 10px; font-family: 'DejaVu Sans'; text-anchor: start; fill: #e31a1c" x="311.751642" y="111.961925" transform="rotate(-0 311.751642 111.961925)">MS3</text>
   </g>
   <g id="text_21">
    <text style="font-weight: 700; font-size: 10px; font-family: 'DejaVu Sans'; text-anchor: start; fill: #756bb1" x="334.826125" y="70.731055" transform="rotate(-0 334.826125 70.731055)">MS7</text>
   </g>
   <g id="text_22">
    <text style="font-size: 9px; font-family: 'DejaVu Sans'; text-anchor: start" x="79.216566" y="211.346291" transform="rotate(-0 79.216566 211.346291)">Initial</text>
   </g>
   <g id="text_23">
    <text style="font-size: 9px; font-family: 'DejaVu Sans'; text-anchor: start" x="152.4117" y="185.186342" transform="rotate(-0 152.4117 185.186342)">no phenotype</text>
   </g>
   <g id="PathCollection_1">
    <defs>
     <path id="m85b52c2f9d" d="M 0 3.535534 
C 0.937635 3.535534 1.836992 3.163008 2.5 2.5 
C 3.163008 1.836992 3.535534 0.937635 3.535534 0 
C 3.535534 -0.937635 3.163008 -1.836992 2.5 -2.5 
C 1.836992 -3.163008 0.937635 -3.535534 0 -3.535534 
C -0.937635 -3.535534 -1.836992 -3.163008 -2.5 -2.5 
C -3.163008 -1.836992 -3.535534 -0.937635 -3.535534 0 
C -3.535534 0.937635 -3.163008 1.836992 -2.5 2.5 
C -1.836992 3.163008 -0.937635 3.535534 0 3.535534 
z
" style="stroke: #ffffff; stroke-opacity: 0.9; stroke-width: 0.8"/>
    </defs>
    <g clip-path="url(#p224f9189de)">
     <use xlink:href="#m85b52c2f9d" x="230.1844" y="147.207804" style="fill: #b7d4ea; fill-opacity: 0.9; stroke: #ffffff; stroke-opacity: 0.9; stroke-width: 0.8"/>
    </g>
   </g>
   <g id="PathCollection_2">
    <defs>
     <path id="mc14ee72536" d="M 0 4.124979 
C 1.093957 4.124979 2.143256 3.690345 2.9168 2.9168 
C 3.690345 2.143256 4.124979 1.093957 4.124979 0 
C 4.124979 -1.093957 3.690345 -2.143256 2.9168 -2.9168 
C 2.143256 -3.690345 1.093957 -4.124979 0 -4.124979 
C -1.093957 -4.124979 -2.143256 -3.690345 -2.9168 -2.9168 
C -3.690345 -2.143256 -4.124979 -1.093957 -4.124979 0 
C -4.124979 1.093957 -3.690345 2.143256 -2.9168 2.9168 
C -2.143256 3.690345 -1.093957 4.124979 0 4.124979 
z
" style="stroke: #ffffff; stroke-opacity: 0.9; stroke-width: 0.8"/>
    </defs>
    <g clip-path="url(#p224f9189de)">
     <use xlink:href="#mc14ee72536" x="229.116506" y="158.206202" style="fill: #b3d3e8; fill-opacity: 0.9; stroke: #ffffff; stroke-opacity: 0.9; stroke-width: 0.8"/>
    </g>
   </g>
   <g id="PathCollection_3">
    <defs>
     <path id="m7f73129d87" d="M 0 4.91653 
C 1.303879 4.91653 2.55453 4.398494 3.476512 3.476512 
C 4.398494 2.55453 4.91653 1.303879 4.91653 0 
C 4.91653 -1.303879 4.398494 -2.55453 3.476512 -3.476512 
C 2.55453 -4.398494 1.303879 -4.91653 0 -4.91653 
C -1.303879 -4.91653 -2.55453 -4.398494 -3.476512 -3.476512 
C -4.398494 -2.55453 -4.91653 -1.303879 -4.91653 0 
C -4.91653 1.303879 -4.398494 2.55453 -3.476512 3.476512 
C -2.55453 4.398494 -1.303879 4.91653 0 4.91653 
z
" style="stroke: #ffffff; stroke-opacity: 0.9; stroke-width: 0.8"/>
    </defs>
    <g clip-path="url(#p224f9189de)">
     <use xlink:href="#m7f73129d87" x="219.645208" y="180.302083" style="fill: #a3cce3; fill-opacity: 0.9; stroke: #ffffff; stroke-opacity: 0.9; stroke-width: 0.8"/>
    </g>
   </g>
   <g id="PathCollection_4">
    <defs>
     <path id="m104c31ac14" d="M 0 5.302913 
C 1.406349 5.302913 2.755287 4.744165 3.749726 3.749726 
C 4.744165 2.755287 5.302913 1.406349 5.302913 0 
C 5.302913 -1.406349 4.744165 -2.755287 3.749726 -3.749726 
C 2.755287 -4.744165 1.406349 -5.302913 0 -5.302913 
C -1.406349 -5.302913 -2.755287 -4.744165 -3.749726 -3.749726 
C -4.744165 -2.755287 -5.302913 -1.406349 -5.302913 0 
C -5.302913 1.406349 -4.744165 2.755287 -3.749726 3.749726 
C -2.755287 4.744165 -1.406349 5.302913 0 5.302913 
z
" style="stroke: #ffffff; stroke-opacity: 0.9; stroke-width: 0.8"/>
    </defs>
    <g clip-path="url(#p224f9189de)">
     <use xlink:href="#m104c31ac14" x="215.492207" y="189.616042" style="fill: #8cc0dd; fill-opacity: 0.9; stroke: #ffffff; stroke-opacity: 0.9; stroke-width: 0.8"/>
    </g>
   </g>
   <g id="PathCollection_5">
    <defs>
     <path id="mbb96feedff" d="M 0 5.807289 
C 1.540111 5.807289 3.01735 5.195396 4.106373 4.106373 
C 5.195396 3.01735 5.807289 1.540111 5.807289 0 
C 5.807289 -1.540111 5.195396 -3.01735 4.106373 -4.106373 
C 3.01735 -5.195396 1.540111 -5.807289 0 -5.807289 
C -1.540111 -5.807289 -3.01735 -5.195396 -4.106373 -4.106373 
C -5.195396 -3.01735 -5.807289 -1.540111 -5.807289 0 
C -5.807289 1.540111 -5.195396 3.01735 -4.106373 4.106373 
C -3.01735 5.195396 -1.540111 5.807289 0 5.807289 
z
" style="stroke: #ffffff; stroke-opacity: 0.9; stroke-width: 0.8"/>
    </defs>
    <g clip-path="url(#p224f9189de)">
     <use xlink:href="#mbb96feedff" x="205.370918" y="204.577827" style="fill: #4a98c9; fill-opacity: 0.9; stroke: #ffffff; stroke-opacity: 0.9; stroke-width: 0.8"/>
    </g>
   </g>
   <g id="PathCollection_6">
    <defs>
     <path id="m170cbff8c2" d="M 0 6.173617 
C 1.637262 6.173617 3.207687 5.523126 4.365407 4.365407 
C 5.523126 3.207687 6.173617 1.637262 6.173617 0 
C 6.173617 -1.637262 5.523126 -3.207687 4.365407 -4.365407 
C 3.207687 -5.523126 1.637262 -6.173617 0 -6.173617 
C -1.637262 -6.173617 -3.207687 -5.523126 -4.365407 -4.365407 
C -5.523126 -3.207687 -6.173617 -1.637262 -6.173617 0 
C -6.173617 1.637262 -5.523126 3.207687 -4.365407 4.365407 
C -3.207687 5.523126 -1.637262 6.173617 0 6.173617 
z
" style="stroke: #ffffff; stroke-opacity: 0.9; stroke-width: 0.8"/>
    </defs>
    <g clip-path="url(#p224f9189de)">
     <use xlink:href="#m170cbff8c2" x="198.514561" y="207.550367" style="fill: #084a91; fill-opacity: 0.9; stroke: #ffffff; stroke-opacity: 0.9; stroke-width: 0.8"/>
    </g>
   </g>
   <g id="PathCollection_7">
    <defs>
     <path id="m9069a4edf7" d="M 0 3.535534 
C 0.937635 3.535534 1.836992 3.163008 2.5 2.5 
C 3.163008 1.836992 3.535534 0.937635 3.535534 0 
C 3.535534 -0.937635 3.163008 -1.836992 2.5 -2.5 
C 1.836992 -3.163008 0.937635 -3.535534 0 -3.535534 
C -0.937635 -3.535534 -1.836992 -3.163008 -2.5 -2.5 
C -3.163008 -1.836992 -3.535534 -0.937635 -3.535534 0 
C -3.535534 0.937635 -3.163008 1.836992 -2.5 2.5 
C -1.836992 3.163008 -0.937635 3.535534 0 3.535534 
z
" style="stroke: #ffffff; stroke-opacity: 0.9; stroke-width: 0.8"/>
    </defs>
    <g clip-path="url(#p224f9189de)">
     <use xlink:href="#m9069a4edf7" x="301.102566" y="97.142279" style="fill: #fcab8f; fill-opacity: 0.9; stroke: #ffffff; stroke-opacity: 0.9; stroke-width: 0.8"/>
    </g>
   </g>
   <g id="PathCollection_8">
    <defs>
     <path id="m91b8f4e7ee" d="M 0 4.124979 
C 1.093957 4.124979 2.143256 3.690345 2.9168 2.9168 
C 3.690345 2.143256 4.124979 1.093957 4.124979 0 
C 4.124979 -1.093957 3.690345 -2.143256 2.9168 -2.9168 
C 2.143256 -3.690345 1.093957 -4.124979 0 -4.124979 
C -1.093957 -4.124979 -2.143256 -3.690345 -2.9168 -2.9168 
C -3.690345 -2.143256 -4.124979 -1.093957 -4.124979 0 
C -4.124979 1.093957 -3.690345 2.143256 -2.9168 2.9168 
C -2.143256 3.690345 -1.093957 4.124979 0 4.124979 
z
" style="stroke: #ffffff; stroke-opacity: 0.9; stroke-width: 0.8"/>
    </defs>
    <g clip-path="url(#p224f9189de)">
     <use xlink:href="#m91b8f4e7ee" x="301.427928" y="109.20255" style="fill: #fca78b; fill-opacity: 0.9; stroke: #ffffff; stroke-opacity: 0.9; stroke-width: 0.8"/>
    </g>
   </g>
   <g id="PathCollection_9">
    <defs>
     <path id="m30c22f72be" d="M 0 4.91653 
C 1.303879 4.91653 2.55453 4.398494 3.476512 3.476512 
C 4.398494 2.55453 4.91653 1.303879 4.91653 0 
C 4.91653 -1.303879 4.398494 -2.55453 3.476512 -3.476512 
C 2.55453 -4.398494 1.303879 -4.91653 0 -4.91653 
C -1.303879 -4.91653 -2.55453 -4.398494 -3.476512 -3.476512 
C -4.398494 -2.55453 -4.91653 -1.303879 -4.91653 0 
C -4.91653 1.303879 -4.398494 2.55453 -3.476512 3.476512 
C -2.55453 4.398494 -1.303879 4.91653 0 4.91653 
z
" style="stroke: #ffffff; stroke-opacity: 0.9; stroke-width: 0.8"/>
    </defs>
    <g clip-path="url(#p224f9189de)">
     <use xlink:href="#m30c22f72be" x="296.547508" y="157.618417" style="fill: #fc9777; fill-opacity: 0.9; stroke: #ffffff; stroke-opacity: 0.9; stroke-width: 0.8"/>
    </g>
   </g>
   <g id="PathCollection_10">
    <defs>
     <path id="m142f55e027" d="M 0 5.302913 
C 1.406349 5.302913 2.755287 4.744165 3.749726 3.749726 
C 4.744165 2.755287 5.302913 1.406349 5.302913 0 
C 5.302913 -1.406349 4.744165 -2.755287 3.749726 -3.749726 
C 2.755287 -4.744165 1.406349 -5.302913 0 -5.302913 
C -1.406349 -5.302913 -2.755287 -4.744165 -3.749726 -3.749726 
C -4.744165 -2.755287 -5.302913 -1.406349 -5.302913 0 
C -5.302913 1.406349 -4.744165 2.755287 -3.749726 3.749726 
C -2.755287 4.744165 -1.406349 5.302913 0 5.302913 
z
" style="stroke: #ffffff; stroke-opacity: 0.9; stroke-width: 0.8"/>
    </defs>
    <g clip-path="url(#p224f9189de)">
     <use xlink:href="#m142f55e027" x="275.724384" y="199.567182" style="fill: #fc8464; fill-opacity: 0.9; stroke: #ffffff; stroke-opacity: 0.9; stroke-width: 0.8"/>
    </g>
   </g>
   <g id="PathCollection_11">
    <defs>
     <path id="m749001917f" d="M 0 5.807289 
C 1.540111 5.807289 3.01735 5.195396 4.106373 4.106373 
C 5.195396 3.01735 5.807289 1.540111 5.807289 0 
C 5.807289 -1.540111 5.195396 -3.01735 4.106373 -4.106373 
C 3.01735 -5.195396 1.540111 -5.807289 0 -5.807289 
C -1.540111 -5.807289 -3.01735 -5.195396 -4.106373 -4.106373 
C -5.195396 -3.01735 -5.807289 -1.540111 -5.807289 0 
C -5.807289 1.540111 -5.195396 3.01735 -4.106373 4.106373 
C -3.01735 5.195396 -1.540111 5.807289 0 5.807289 
z
" style="stroke: #ffffff; stroke-opacity: 0.9; stroke-width: 0.8"/>
    </defs>
    <g clip-path="url(#p224f9189de)">
     <use xlink:href="#m749001917f" x="256.202706" y="201.664621" style="fill: #f14432; fill-opacity: 0.9; stroke: #ffffff; stroke-opacity: 0.9; stroke-width: 0.8"/>
    </g>
   </g>
   <g id="PathCollection_12">
    <defs>
     <path id="m70241889f0" d="M 0 6.173617 
C 1.637262 6.173617 3.207687 5.523126 4.365407 4.365407 
C 5.523126 3.207687 6.173617 1.637262 6.173617 0 
C 6.173617 -1.637262 5.523126 -3.207687 4.365407 -4.365407 
C 3.207687 -5.523126 1.637262 -6.173617 0 -6.173617 
C -1.637262 -6.173617 -3.207687 -5.523126 -4.365407 -4.365407 
C -5.523126 -3.207687 -6.173617 -1.637262 -6.173617 0 
C -6.173617 1.637262 -5.523126 3.207687 -4.365407 4.365407 
C -3.207687 5.523126 -1.637262 6.173617 0 6.173617 
z
" style="stroke: #ffffff; stroke-opacity: 0.9; stroke-width: 0.8"/>
    </defs>
    <g clip-path="url(#p224f9189de)">
     <use xlink:href="#m70241889f0" x="260.432403" y="201.489834" style="fill: #980c13; fill-opacity: 0.9; stroke: #ffffff; stroke-opacity: 0.9; stroke-width: 0.8"/>
    </g>
   </g>
   <g id="PathCollection_13">
    <defs>
     <path id="m5e743af3d6" d="M 0 3.535534 
C 0.937635 3.535534 1.836992 3.163008 2.5 2.5 
C 3.163008 1.836992 3.535534 0.937635 3.535534 0 
C 3.535534 -0.937635 3.163008 -1.836992 2.5 -2.5 
C 1.836992 -3.163008 0.937635 -3.535534 0 -3.535534 
C -0.937635 -3.535534 -1.836992 -3.163008 -2.5 -2.5 
C -3.163008 -1.836992 -3.535534 -0.937635 -3.535534 0 
C -3.535534 0.937635 -3.163008 1.836992 -2.5 2.5 
C -1.836992 3.163008 -0.937635 3.535534 0 3.535534 
z
" style="stroke: #ffffff; stroke-opacity: 0.9; stroke-width: 0.8"/>
    </defs>
    <g clip-path="url(#p224f9189de)">
     <use xlink:href="#m5e743af3d6" x="355.473554" y="67.97168" style="fill: #cecfe5; fill-opacity: 0.9; stroke: #ffffff; stroke-opacity: 0.9; stroke-width: 0.8"/>
    </g>
   </g>
   <g id="PathCollection_14">
    <defs>
     <path id="m60cf476fb2" d="M 0 4.124979 
C 1.093957 4.124979 2.143256 3.690345 2.9168 2.9168 
C 3.690345 2.143256 4.124979 1.093957 4.124979 0 
C 4.124979 -1.093957 3.690345 -2.143256 2.9168 -2.9168 
C 2.143256 -3.690345 1.093957 -4.124979 0 -4.124979 
C -1.093957 -4.124979 -2.143256 -3.690345 -2.9168 -2.9168 
C -3.690345 -2.143256 -4.124979 -1.093957 -4.124979 0 
C -4.124979 1.093957 -3.690345 2.143256 -2.9168 2.9168 
C -2.143256 3.690345 -1.093957 4.124979 0 4.124979 
z
" style="stroke: #ffffff; stroke-opacity: 0.9; stroke-width: 0.8"/>
    </defs>
    <g clip-path="url(#p224f9189de)">
     <use xlink:href="#m60cf476fb2" x="339.826623" y="94.502709" style="fill: #cccce4; fill-opacity: 0.9; stroke: #ffffff; stroke-opacity: 0.9; stroke-width: 0.8"/>
    </g>
   </g>
   <g id="PathCollection_15">
    <defs>
     <path id="me5ce4c63cb" d="M 0 4.91653 
C 1.303879 4.91653 2.55453 4.398494 3.476512 3.476512 
C 4.398494 2.55453 4.91653 1.303879 4.91653 0 
C 4.91653 -1.303879 4.398494 -2.55453 3.476512 -3.476512 
C 2.55453 -4.398494 1.303879 -4.91653 0 -4.91653 
C -1.303879 -4.91653 -2.55453 -4.398494 -3.476512 -3.476512 
C -4.398494 -2.55453 -4.91653 -1.303879 -4.91653 0 
C -4.91653 1.303879 -4.398494 2.55453 -3.476512 3.476512 
C -2.55453 4.398494 -1.303879 4.91653 0 4.91653 
z
" style="stroke: #ffffff; stroke-opacity: 0.9; stroke-width: 0.8"/>
    </defs>
    <g clip-path="url(#p224f9189de)">
     <use xlink:href="#me5ce4c63cb" x="332.329136" y="168.844864" style="fill: #bfc0de; fill-opacity: 0.9; stroke: #ffffff; stroke-opacity: 0.9; stroke-width: 0.8"/>
    </g>
   </g>
   <g id="PathCollection_16">
    <defs>
     <path id="m93d162ae57" d="M 0 5.302913 
C 1.406349 5.302913 2.755287 4.744165 3.749726 3.749726 
C 4.744165 2.755287 5.302913 1.406349 5.302913 0 
C 5.302913 -1.406349 4.744165 -2.755287 3.749726 -3.749726 
C 2.755287 -4.744165 1.406349 -5.302913 0 -5.302913 
C -1.406349 -5.302913 -2.755287 -4.744165 -3.749726 -3.749726 
C -4.744165 -2.755287 -5.302913 -1.406349 -5.302913 0 
C -5.302913 1.406349 -4.744165 2.755287 -3.749726 3.749726 
C -2.755287 4.744165 -1.406349 5.302913 0 5.302913 
z
" style="stroke: #ffffff; stroke-opacity: 0.9; stroke-width: 0.8"/>
    </defs>
    <g clip-path="url(#p224f9189de)">
     <use xlink:href="#m93d162ae57" x="328.091425" y="196.204987" style="fill: #b1b1d5; fill-opacity: 0.9; stroke: #ffffff; stroke-opacity: 0.9; stroke-width: 0.8"/>
    </g>
   </g>
   <g id="PathCollection_17">
    <defs>
     <path id="m1051ef25fb" d="M 0 5.807289 
C 1.540111 5.807289 3.01735 5.195396 4.106373 4.106373 
C 5.195396 3.01735 5.807289 1.540111 5.807289 0 
C 5.807289 -1.540111 5.195396 -3.01735 4.106373 -4.106373 
C 3.01735 -5.195396 1.540111 -5.807289 0 -5.807289 
C -1.540111 -5.807289 -3.01735 -5.195396 -4.106373 -4.106373 
C -5.195396 -3.01735 -5.807289 -1.540111 -5.807289 0 
C -5.807289 1.540111 -5.195396 3.01735 -4.106373 4.106373 
C -3.01735 5.195396 -1.540111 5.807289 0 5.807289 
z
" style="stroke: #ffffff; stroke-opacity: 0.9; stroke-width: 0.8"/>
    </defs>
    <g clip-path="url(#p224f9189de)">
     <use xlink:href="#m1051ef25fb" x="316.03025" y="197.034082" style="fill: #8683bd; fill-opacity: 0.9; stroke: #ffffff; stroke-opacity: 0.9; stroke-width: 0.8"/>
    </g>
   </g>
   <g id="PathCollection_18">
    <defs>
     <path id="maa7ae3327c" d="M 0 6.173617 
C 1.637262 6.173617 3.207687 5.523126 4.365407 4.365407 
C 5.523126 3.207687 6.173617 1.637262 6.173617 0 
C 6.173617 -1.637262 5.523126 -3.207687 4.365407 -4.365407 
C 3.207687 -5.523126 1.637262 -6.173617 0 -6.173617 
C -1.637262 -6.173617 -3.207687 -5.523126 -4.365407 -4.365407 
C -5.523126 -3.207687 -6.173617 -1.637262 -6.173617 0 
C -6.173617 1.637262 -5.523126 3.207687 -4.365407 4.365407 
C -3.207687 5.523126 -1.637262 6.173617 0 6.173617 
z
" style="stroke: #ffffff; stroke-opacity: 0.9; stroke-width: 0.8"/>
    </defs>
    <g clip-path="url(#p224f9189de)">
     <use xlink:href="#maa7ae3327c" x="312.444495" y="198.692271" style="fill: #4f1f8b; fill-opacity: 0.9; stroke: #ffffff; stroke-opacity: 0.9; stroke-width: 0.8"/>
    </g>
   </g>
   <g id="legend_1">
    <g id="patch_5">
     <path d="M 51.815938 86.110625 
L 160.812188 86.110625 
Q 163.012188 86.110625 163.012188 83.910625 
L 163.012188 19.459062 
Q 163.012188 17.259062 160.812188 17.259062 
L 51.815938 17.259062 
Q 49.615938 17.259062 49.615938 19.459062 
L 49.615938 83.910625 
Q 49.615938 86.110625 51.815938 86.110625 
z
" style="fill: #ffffff; opacity: 0.8; stroke: #cccccc; stroke-linejoin: miter"/>
    </g>
    <g id="text_24">
     <text style="font-size: 12px; font-family: 'DejaVu Sans'; text-anchor: start" x="84.172188" y="30.777187" transform="rotate(-0 84.172188 30.777187)">Penalty</text>
    </g>
    <g id="line2d_36">
     <path d="M 54.015937 43.281094 
L 65.015938 43.281094 
L 76.015938 43.281094 
" style="fill: none; stroke: #ffffff; stroke-opacity: 0.7; stroke-width: 1.5; stroke-linecap: square"/>
     <defs>
      <path id="mb6970db5cf" d="M 0 3.535534 
C 0.937635 3.535534 1.836992 3.163008 2.5 2.5 
C 3.163008 1.836992 3.535534 0.937635 3.535534 0 
C 3.535534 -0.937635 3.163008 -1.836992 2.5 -2.5 
C 1.836992 -3.163008 0.937635 -3.535534 0 -3.535534 
C -0.937635 -3.535534 -1.836992 -3.163008 -2.5 -2.5 
C -3.163008 -1.836992 -3.535534 -0.937635 -3.535534 0 
C -3.535534 0.937635 -3.163008 1.836992 -2.5 2.5 
C -1.836992 3.163008 -0.937635 3.535534 0 3.535534 
z
" style="stroke: #ffffff; stroke-opacity: 0.7"/>
     </defs>
     <g>
      <use xlink:href="#mb6970db5cf" x="65.015938" y="43.281094" style="fill: #808080; fill-opacity: 0.7; stroke: #ffffff; stroke-opacity: 0.7"/>
     </g>
    </g>
    <g id="text_25">
     <text style="font-size: 11px; font-family: 'DejaVu Sans'; text-anchor: start" x="84.815938" y="47.131094" transform="rotate(-0 84.815938 47.131094)">0</text>
    </g>
    <g id="line2d_37">
     <path d="M 54.015937 59.427031 
L 65.015938 59.427031 
L 76.015938 59.427031 
" style="fill: none; stroke: #ffffff; stroke-opacity: 0.7; stroke-width: 1.5; stroke-linecap: square"/>
     <defs>
      <path id="m3e94d026a3" d="M 0 4.124979 
C 1.093957 4.124979 2.143256 3.690345 2.9168 2.9168 
C 3.690345 2.143256 4.124979 1.093957 4.124979 0 
C 4.124979 -1.093957 3.690345 -2.143256 2.9168 -2.9168 
C 2.143256 -3.690345 1.093957 -4.124979 0 -4.124979 
C -1.093957 -4.124979 -2.143256 -3.690345 -2.9168 -2.9168 
C -3.690345 -2.143256 -4.124979 -1.093957 -4.124979 0 
C -4.124979 1.093957 -3.690345 2.143256 -2.9168 2.9168 
C -2.143256 3.690345 -1.093957 4.124979 0 4.124979 
z
" style="stroke: #ffffff; stroke-opacity: 0.7"/>
     </defs>
     <g>
      <use xlink:href="#m3e94d026a3" x="65.015938" y="59.427031" style="fill: #808080; fill-opacity: 0.7; stroke: #ffffff; stroke-opacity: 0.7"/>
     </g>
    </g>
    <g id="text_26">
     <text style="font-size: 11px; font-family: 'DejaVu Sans'; text-anchor: start" x="84.815938" y="63.277031" transform="rotate(-0 84.815938 63.277031)">1</text>
    </g>
    <g id="line2d_38">
     <path d="M 54.015937 75.572969 
L 65.015938 75.572969 
L 76.015938 75.572969 
" style="fill: none; stroke: #ffffff; stroke-opacity: 0.7; stroke-width: 1.5; stroke-linecap: square"/>
     <defs>
      <path id="m9877305618" d="M 0 4.91653 
C 1.303879 4.91653 2.55453 4.398494 3.476512 3.476512 
C 4.398494 2.55453 4.91653 1.303879 4.91653 0 
C 4.91653 -1.303879 4.398494 -2.55453 3.476512 -3.476512 
C 2.55453 -4.398494 1.303879 -4.91653 0 -4.91653 
C -1.303879 -4.91653 -2.55453 -4.398494 -3.476512 -3.476512 
C -4.398494 -2.55453 -4.91653 -1.303879 -4.91653 0 
C -4.91653 1.303879 -4.398494 2.55453 -3.476512 3.476512 
C -2.55453 4.398494 -1.303879 4.91653 0 4.91653 
z
" style="stroke: #ffffff; stroke-opacity: 0.7"/>
     </defs>
     <g>
      <use xlink:href="#m9877305618" x="65.015938" y="75.572969" style="fill: #808080; fill-opacity: 0.7; stroke: #ffffff; stroke-opacity: 0.7"/>
     </g>
    </g>
    <g id="text_27">
     <text style="font-size: 11px; font-family: 'DejaVu Sans'; text-anchor: start" x="84.815938" y="79.422969" transform="rotate(-0 84.815938 79.422969)">5</text>
    </g>
    <g id="line2d_39">
     <path d="M 113.814687 43.281094 
L 124.814687 43.281094 
L 135.814687 43.281094 
" style="fill: none; stroke: #ffffff; stroke-opacity: 0.7; stroke-width: 1.5; stroke-linecap: square"/>
     <defs>
      <path id="m3dbe692798" d="M 0 5.302913 
C 1.406349 5.302913 2.755287 4.744165 3.749726 3.749726 
C 4.744165 2.755287 5.302913 1.406349 5.302913 0 
C 5.302913 -1.406349 4.744165 -2.755287 3.749726 -3.749726 
C 2.755287 -4.744165 1.406349 -5.302913 0 -5.302913 
C -1.406349 -5.302913 -2.755287 -4.744165 -3.749726 -3.749726 
C -4.744165 -2.755287 -5.302913 -1.406349 -5.302913 0 
C -5.302913 1.406349 -4.744165 2.755287 -3.749726 3.749726 
C -2.755287 4.744165 -1.406349 5.302913 0 5.302913 
z
" style="stroke: #ffffff; stroke-opacity: 0.7"/>
     </defs>
     <g>
      <use xlink:href="#m3dbe692798" x="124.814687" y="43.281094" style="fill: #808080; fill-opacity: 0.7; stroke: #ffffff; stroke-opacity: 0.7"/>
     </g>
    </g>
    <g id="text_28">
     <text style="font-size: 11px; font-family: 'DejaVu Sans'; text-anchor: start" x="144.614688" y="47.131094" transform="rotate(-0 144.614688 47.131094)">10</text>
    </g>
    <g id="line2d_40">
     <path d="M 113.814687 59.427031 
L 124.814687 59.427031 
L 135.814687 59.427031 
" style="fill: none; stroke: #ffffff; stroke-opacity: 0.7; stroke-width: 1.5; stroke-linecap: square"/>
     <defs>
      <path id="mb12b3810e3" d="M 0 5.807289 
C 1.540111 5.807289 3.01735 5.195396 4.106373 4.106373 
C 5.195396 3.01735 5.807289 1.540111 5.807289 0 
C 5.807289 -1.540111 5.195396 -3.01735 4.106373 -4.106373 
C 3.01735 -5.195396 1.540111 -5.807289 0 -5.807289 
C -1.540111 -5.807289 -3.01735 -5.195396 -4.106373 -4.106373 
C -5.195396 -3.01735 -5.807289 -1.540111 -5.807289 0 
C -5.807289 1.540111 -5.195396 3.01735 -4.106373 4.106373 
C -3.01735 5.195396 -1.540111 5.807289 0 5.807289 
z
" style="stroke: #ffffff; stroke-opacity: 0.7"/>
     </defs>
     <g>
      <use xlink:href="#mb12b3810e3" x="124.814687" y="59.427031" style="fill: #808080; fill-opacity: 0.7; stroke: #ffffff; stroke-opacity: 0.7"/>
     </g>
    </g>
    <g id="text_29">
     <text style="font-size: 11px; font-family: 'DejaVu Sans'; text-anchor: start" x="144.614688" y="63.277031" transform="rotate(-0 144.614688 63.277031)">25</text>
    </g>
    <g id="line2d_41">
     <path d="M 113.814687 75.572969 
L 124.814687 75.572969 
L 135.814687 75.572969 
" style="fill: none; stroke: #ffffff; stroke-opacity: 0.7; stroke-width: 1.5; stroke-linecap: square"/>
     <defs>
      <path id="mb07e9aefe6" d="M 0 6.173617 
C 1.637262 6.173617 3.207687 5.523126 4.365407 4.365407 
C 5.523126 3.207687 6.173617 1.637262 6.173617 0 
C 6.173617 -1.637262 5.523126 -3.207687 4.365407 -4.365407 
C 3.207687 -5.523126 1.637262 -6.173617 0 -6.173617 
C -1.637262 -6.173617 -3.207687 -5.523126 -4.365407 -4.365407 
C -5.523126 -3.207687 -6.173617 -1.637262 -6.173617 0 
C -6.173617 1.637262 -5.523126 3.207687 -4.365407 4.365407 
C -3.207687 5.523126 -1.637262 6.173617 0 6.173617 
z
" style="stroke: #ffffff; stroke-opacity: 0.7"/>
     </defs>
     <g>
      <use xlink:href="#mb07e9aefe6" x="124.814687" y="75.572969" style="fill: #808080; fill-opacity: 0.7; stroke: #ffffff; stroke-opacity: 0.7"/>
     </g>
    </g>
    <g id="text_30">
     <text style="font-size: 11px; font-family: 'DejaVu Sans'; text-anchor: start" x="144.614688" y="79.422969" transform="rotate(-0 144.614688 79.422969)">50</text>
    </g>
   </g>
   <g id="PathCollection_19">
    <defs>
     <path id="mae3d19fbdb" d="M 0 -7.905694 
L -1.774939 -2.442994 
L -7.518762 -2.442994 
L -2.871911 0.933141 
L -4.64685 6.395841 
L -0 3.019706 
L 4.64685 6.395841 
L 2.871911 0.933141 
L 7.518762 -2.442994 
L 1.774939 -2.442994 
z
" style="stroke: #000000; stroke-width: 0.5"/>
    </defs>
    <g clip-path="url(#p224f9189de)">
     <use xlink:href="#mae3d19fbdb" x="70.957595" y="219.143273" style="fill: #ff0000; stroke: #000000; stroke-width: 0.5"/>
    </g>
   </g>
   <g id="PathCollection_20">
    <defs>
     <path id="mdbe63f454b" d="M -0 7.071068 
L 7.071068 0 
L 0 -7.071068 
L -7.071068 -0 
z
" style="stroke: #000000"/>
    </defs>
    <g clip-path="url(#p224f9189de)">
     <use xlink:href="#mdbe63f454b" x="144.152729" y="182.702905" style="fill: #32cd32; stroke: #000000"/>
    </g>
   </g>
  </g>
 </g>
 <defs>
  <clipPath id="p224f9189de">
   <rect x="44.115938" y="11.759062" width="361.33" height="225.16"/>
  </clipPath>
 </defs>
</svg>
